<svg id="visual" viewBox="0 0 960 300" width="960" height="300" xmlns="http://www.w3.org/2000/svg" xmlns:xlink="http://www.w3.org/1999/xlink" version="1.1"><path d="M0 224L20 222C40 220 80 216 120 216.5C160 217 200 222 240 227C280 232 320 237 360 227C400 217 440 192 480 192.8C520 193.7 560 220.3 600 236.7C640 253 680 259 720 251.5C760 244 800 223 840 212.3C880 201.7 920 201.3 940 201.2L960 201L960 301L940 301C920 301 880 301 840 301C800 301 760 301 720 301C680 301 640 301 600 301C560 301 520 301 480 301C440 301 400 301 360 301C320 301 280 301 240 301C200 301 160 301 120 301C80 301 40 301 20 301L0 301Z" fill="#ffffff" stroke-linecap="round" stroke-linejoin="miter"></path></svg>