<svg id="visual" viewBox="0 0 960 300" width="960" height="300" xmlns="http://www.w3.org/2000/svg" xmlns:xlink="http://www.w3.org/1999/xlink" version="1.1"><path d="M0 169L20 183.8C40 198.7 80 228.3 120 229.2C160 230 200 202 240 202.8C280 203.7 320 233.3 360 246C400 258.7 440 254.3 480 246.5C520 238.7 560 227.3 600 225.8C640 224.3 680 232.7 720 241.8C760 251 800 261 840 256.3C880 251.7 920 232.3 940 222.7L960 213L960 301L940 301C920 301 880 301 840 301C800 301 760 301 720 301C680 301 640 301 600 301C560 301 520 301 480 301C440 301 400 301 360 301C320 301 280 301 240 301C200 301 160 301 120 301C80 301 40 301 20 301L0 301Z" fill="#4eb4af" stroke-linecap="round" stroke-linejoin="miter"></path></svg>