<svg id="visual" viewBox="0 0 960 300" width="960" height="300" xmlns="http://www.w3.org/2000/svg" xmlns:xlink="http://www.w3.org/1999/xlink" version="1.1"><g><g transform="translate(115 210)"><path d="M0 -64.8L28.1 -58.4L50.7 -40.4L63.2 -14.4L63.2 14.4L50.7 40.4L28.1 58.4L0 64.8L-28.1 58.4L-50.7 40.4L-63.2 14.4L-63.2 -14.4L-50.7 -40.4L-28.1 -58.4Z" stroke="#4eb4af" fill="none" stroke-width="2"></path></g><g transform="translate(959 236)"><path d="M0 -63L27.3 -56.8L49.3 -39.3L61.4 -14L61.4 14L49.3 39.3L27.3 56.8L0 63L-27.3 56.8L-49.3 39.3L-61.4 14L-61.4 -14L-49.3 -39.3L-27.3 -56.8Z" stroke="#4eb4af" fill="none" stroke-width="2"></path></g><g transform="translate(468 4)"><path d="M0 -21L9.1 -18.9L16.4 -13.1L20.5 -4.7L20.5 4.7L16.4 13.1L9.1 18.9L0 21L-9.1 18.9L-16.4 13.1L-20.5 4.7L-20.5 -4.7L-16.4 -13.1L-9.1 -18.9Z" stroke="#4eb4af" fill="none" stroke-width="2"></path></g><g transform="translate(479 216)"><path d="M0 -53L23 -47.8L41.4 -33L51.7 -11.8L51.7 11.8L41.4 33L23 47.8L0 53L-23 47.8L-41.4 33L-51.7 11.8L-51.7 -11.8L-41.4 -33L-23 -47.8Z" stroke="#4eb4af" fill="none" stroke-width="2"></path></g><g transform="translate(847 88)"><path d="M0 -16L6.9 -14.4L12.5 -10L15.6 -3.6L15.6 3.6L12.5 10L6.9 14.4L0 16L-6.9 14.4L-12.5 10L-15.6 3.6L-15.6 -3.6L-12.5 -10L-6.9 -14.4Z" stroke="#4eb4af" fill="none" stroke-width="2"></path></g></g></svg>