<svg id="visual" viewBox="0 0 960 300" width="960" height="300" xmlns="http://www.w3.org/2000/svg" xmlns:xlink="http://www.w3.org/1999/xlink" version="1.1"><path d="M0 230L16 232C32 234 64 238 96 234.8C128 231.7 160 221.3 192 216C224 210.7 256 210.3 288 217.7C320 225 352 240 384 247.3C416 254.7 448 254.3 480 252.8C512 251.3 544 248.7 576 242.7C608 236.7 640 227.3 672 222.5C704 217.7 736 217.3 768 225.8C800 234.3 832 251.7 864 252.8C896 254 928 239 944 231.5L960 224L960 301L944 301C928 301 896 301 864 301C832 301 800 301 768 301C736 301 704 301 672 301C640 301 608 301 576 301C544 301 512 301 480 301C448 301 416 301 384 301C352 301 320 301 288 301C256 301 224 301 192 301C160 301 128 301 96 301C64 301 32 301 16 301L0 301Z" fill="#6a6c6b" stroke-linecap="round" stroke-linejoin="miter"></path></svg>